<svg version="1.0" xmlns="http://www.w3.org/2000/svg" width="482.667" height="566.667" viewBox="0 0 362 425">
<path d="M34.5 17.7c-1.2 1.1-1.5 2.5-1.1 4.6 1.4 6.8 8.8 13.1 29.6 25.1 6.3 3.6 12.1 7 12.8 7.4 1.1.7.9 1.6-.7 4.3-1.5 2.4-2.1 5.1-2.1 9.1 0 4.8-.3 5.8-2 6.3-2.5.8-3.4 4.3-2.6 10 .7 4.3.6 4.5-1.8 4.5-2.9 0-5.6 2.4-5.6 5 0 3.3 2.8 5 8 5 4.7 0 5 .2 8.1 4.7 5.4 7.8 21.9 27 37.4 43.3 9.4 10 19.8 22.5 29.1 35l14.4 19.5.3 44c.3 41.4.5 45.2 3 64 2.5 18.4 4.5 30.6 6.6 41l.8 4.1-19.6.3c-18.9.3-19.8.4-28.6 3.4-4.9 1.7-10.3 3.9-12 4.8-1.6 1-6.4 2.5-10.5 3.5-8.3 1.8-15.6 5.2-24 11.2-5.2 3.6-5.5 4.1-5.8 8.6-.2 3.6.2 5.3 1.5 6.8 2.5 2.8 4.2 3.3 17.6 5.7 11.2 2 14.9 2.1 101.5 2.1 85.8 0 90-.1 91.5-1.8 2.5-2.7 2.1-7.6-.8-11-2.7-3.3-12.5-8.3-21-10.7-3.1-.9-10.3-3.5-16.1-5.6-7.3-2.8-13.9-4.5-21.1-5.4-5.8-.8-13.8-2.1-17.7-2.9-3.9-.9-9.7-2.1-12.9-2.7-9.1-1.7-11.3-4.3-13.7-16.2-1.1-5.4-3.4-20.2-5.2-33-3-22-3.2-25.2-3.5-62-.5-38.2-.4-38.7 1.5-38.7 2.2 0 12.2-4.9 36.2-17.9 23.6-12.8 111.6-62.5 118.2-66.9 4.7-3.1 6.8-7.6 6.8-14.9.1-3.2.6-7.8 1.1-10.3 3.2-13.8 1.9-16.6-7.3-15.6-2.9.4-24.9 1-48.8 1.6-23.9.5-52 1.3-62.5 1.9-10.4.6-28.5 1-40.2 1.1h-21.2l2-5.7c1.2-3.5 1.9-8.3 1.9-12.6 0-8.8-2.9-14.4-9.5-18.2-2.4-1.5-4.7-3.4-4.9-4.3C140.2 45 122 40 108.4 40c-8.4 0-12.5 1.3-17.6 5.9-2 1.7-3.9 3.1-4.3 3.1-1.4 0-23.6-13.1-32.7-19.2-5.6-3.7-9.4-7-10.4-9.1-2.6-5.1-5.8-6.2-8.9-3zm71.2 69.9c-.3.3-1.2.4-1.9.1-.8-.3-.5-.6.6-.6 1.1-.1 1.7.2 1.3.5zM83 89c1.3.8 1.3 1-.2 1-.9 0-2-.5-2.3-1-.8-1.3.5-1.3 2.5 0zm239 10.5c-.5 2.2-1 6.7-1 10.1 0 7.3.2 7.1-14.4 15.4l-10.8 6.1-2.2-2c-2.4-2.3-5.6-2.7-7.3-1-.7.7-13.3.9-41.4.6-49.6-.6-46 .1-70.9-12.8-8.4-4.3-8.7-4.4-18-4.3-7.7 0-10.9.6-17 2.8-4.1 1.5-9.5 3.1-11.9 3.7-2.4.5-5.8 1.8-7.6 2.9-1.8 1.1-4 2-5 2s-2.7.8-3.8 1.7c-1.9 1.7-2 1.7-5.4-2.2-2-2.2-6.8-8.1-10.8-13l-7.3-9 67.1-.7c37-.3 73.3-1.1 80.7-1.7 7.4-.6 28.4-1.1 46.5-1.1 18.2-.1 34.8-.5 37-.9 2.2-.4 4.1-.7 4.2-.6.1 0-.2 1.8-.7 4zm-154.4 24.2c3.2 1.4 7.9 3.9 10.5 5.5l4.7 3-1.9 6.1c-1 3.4-3.9 13.8-6.5 23.1s-5.3 18.1-6 19.5c-1.8 3.4-1.7 5.1.3 7.3 3.7 4.2 8.2.4 10.9-9.1.9-3.1 3.3-11.2 5.3-18.1 2.1-6.9 4.4-15.2 5.2-18.5l1.4-6 4 .2c2.2.1 6.9.5 10.5 1 6.5.8 6.5.8 6.2 3.8-.2 1.6-1.2 5.9-2.2 9.5-4.4 15.6-4.9 20.3-2.3 23.2 4.1 4.6 7.5 1.1 9.2-9.5.7-4.3 2.1-10.4 3.2-13.5 1.1-3.1 1.9-7.2 1.7-9l-.4-3.2h25.4l.6 3.1c.3 1.7.6 5.1.6 7.4 0 2.6.6 4.8 1.5 5.5 1.3 1.1-.5 2.4-11.2 8.7-7.1 4.1-20.3 11.5-29.6 16.4-9.2 4.9-20.2 10.9-24.5 13.3-4.2 2.5-9.4 5.2-11.4 6.1-3.6 1.4-3.8 1.4-4.9-.8-1.6-3.1-21-29.6-28.3-38.7-3.3-4.1-10.1-11.7-15-16.9l-8.9-9.4 6.3-2.9c3.4-1.5 6.8-2.8 7.4-2.8.6 0 5.6-1.6 11.1-3.5 12.8-4.3 19-4.5 27.1-.8zM281 139.4c0 .5-21.5 12.6-22.3 12.6-.3 0-.7-2.9-.9-6.5l-.3-6.5h11.8c6.4 0 11.7.2 11.7.4zM179 367.9c7.4 2.4 32.2 7.5 42 8.6 3.6.3 9.6 1.8 13.5 3.2 3.8 1.4 12.4 4.4 19 6.6l12 4.2-83 .2c-74.8.2-84 .1-93-1.5-5.4-.9-9.8-2.2-9.7-2.7.4-2.3 12.7-8.5 20.1-10.1 4.2-.9 9.9-2.8 12.6-4.2 13.4-6.7 16.1-7.2 39-6.8 18.3.3 21.8.6 27.5 2.5z"/>
<path d="M149.8 123.7c-.9 1-1.8 3.6-2 5.8-.3 2.2-1.7 8-3.1 12.9-3.2 10.6-3.5 18.5-.9 20.9 4.3 3.9 8.2.5 8.2-7 0-2.9 1.3-8.9 3-14.1 1.7-5 3-10.9 3-13 0-6.1-4.8-9.3-8.2-5.5z"/>
</svg>